<svg width="509" height="51" viewBox="0 0 509 51" fill="none" xmlns="http://www.w3.org/2000/svg">
<rect width="497" height="51" rx="2" fill="#D9D9D9"/>
<path d="M335.4 31L334 29.6L339.6 24L334 18.4L335.4 17L341 22.6L346.6 17L348 18.4L342.4 24L348 29.6L346.6 31L341 25.4L335.4 31Z" fill="#3D1B10"/>
<rect x="377" width="132" height="51" rx="2" fill="black"/>
<path d="M414.22 32.2C413.127 32.2 412.08 32.0467 411.08 31.74C410.08 31.42 409.287 31.0133 408.7 30.52L409.6 28.5C410.16 28.94 410.853 29.3067 411.68 29.6C412.507 29.8933 413.353 30.04 414.22 30.04C414.953 30.04 415.547 29.96 416 29.8C416.453 29.64 416.787 29.4267 417 29.16C417.213 28.88 417.32 28.5667 417.32 28.22C417.32 27.7933 417.167 27.4533 416.86 27.2C416.553 26.9333 416.153 26.7267 415.66 26.58C415.18 26.42 414.64 26.2733 414.04 26.14C413.453 26.0067 412.86 25.8533 412.26 25.68C411.673 25.4933 411.133 25.26 410.64 24.98C410.16 24.6867 409.767 24.3 409.46 23.82C409.153 23.34 409 22.7267 409 21.98C409 21.22 409.2 20.5267 409.6 19.9C410.013 19.26 410.633 18.7533 411.46 18.38C412.3 17.9933 413.36 17.8 414.64 17.8C415.48 17.8 416.313 17.9067 417.14 18.12C417.967 18.3333 418.687 18.64 419.3 19.04L418.48 21.06C417.853 20.6867 417.207 20.4133 416.54 20.24C415.873 20.0533 415.233 19.96 414.62 19.96C413.9 19.96 413.313 20.0467 412.86 20.22C412.42 20.3933 412.093 20.62 411.88 20.9C411.68 21.18 411.58 21.5 411.58 21.86C411.58 22.2867 411.727 22.6333 412.02 22.9C412.327 23.1533 412.72 23.3533 413.2 23.5C413.693 23.6467 414.24 23.7933 414.84 23.94C415.44 24.0733 416.033 24.2267 416.62 24.4C417.22 24.5733 417.76 24.8 418.24 25.08C418.733 25.36 419.127 25.74 419.42 26.22C419.727 26.7 419.88 27.3067 419.88 28.04C419.88 28.7867 419.673 29.48 419.26 30.12C418.86 30.7467 418.24 31.2533 417.4 31.64C416.56 32.0133 415.5 32.2 414.22 32.2ZM427.238 32.14C426.051 32.14 425.011 31.9067 424.118 31.44C423.238 30.96 422.551 30.3067 422.058 29.48C421.578 28.6533 421.338 27.7133 421.338 26.66C421.338 25.5933 421.571 24.6533 422.038 23.84C422.518 23.0133 423.171 22.3667 423.998 21.9C424.838 21.4333 425.791 21.2 426.858 21.2C427.898 21.2 428.825 21.4267 429.638 21.88C430.451 22.3333 431.091 22.9733 431.558 23.8C432.025 24.6267 432.258 25.6 432.258 26.72C432.258 26.8267 432.251 26.9467 432.238 27.08C432.238 27.2133 432.231 27.34 432.218 27.46H423.318V25.8H430.898L429.918 26.32C429.931 25.7067 429.805 25.1667 429.538 24.7C429.271 24.2333 428.905 23.8667 428.438 23.6C427.985 23.3333 427.458 23.2 426.858 23.2C426.245 23.2 425.705 23.3333 425.238 23.6C424.785 23.8667 424.425 24.24 424.158 24.72C423.905 25.1867 423.778 25.74 423.778 26.38V26.78C423.778 27.42 423.925 27.9867 424.218 28.48C424.511 28.9733 424.925 29.3533 425.458 29.62C425.991 29.8867 426.605 30.02 427.298 30.02C427.898 30.02 428.438 29.9267 428.918 29.74C429.398 29.5533 429.825 29.26 430.198 28.86L431.538 30.4C431.058 30.96 430.451 31.3933 429.718 31.7C428.998 31.9933 428.171 32.14 427.238 32.14ZM440.947 32V29.84L440.807 29.38V25.6C440.807 24.8667 440.587 24.3 440.147 23.9C439.707 23.4867 439.04 23.28 438.147 23.28C437.547 23.28 436.953 23.3733 436.367 23.56C435.793 23.7467 435.307 24.0067 434.907 24.34L433.927 22.52C434.5 22.08 435.18 21.7533 435.967 21.54C436.767 21.3133 437.593 21.2 438.447 21.2C439.993 21.2 441.187 21.5733 442.027 22.32C442.88 23.0533 443.307 24.1933 443.307 25.74V32H440.947ZM437.587 32.14C436.787 32.14 436.087 32.0067 435.487 31.74C434.887 31.46 434.42 31.08 434.087 30.6C433.767 30.1067 433.607 29.5533 433.607 28.94C433.607 28.34 433.747 27.8 434.027 27.32C434.32 26.84 434.793 26.46 435.447 26.18C436.1 25.9 436.967 25.76 438.047 25.76H441.147V27.42H438.227C437.373 27.42 436.8 27.56 436.507 27.84C436.213 28.1067 436.067 28.44 436.067 28.84C436.067 29.2933 436.247 29.6533 436.607 29.92C436.967 30.1867 437.467 30.32 438.107 30.32C438.72 30.32 439.267 30.18 439.747 29.9C440.24 29.62 440.593 29.2067 440.807 28.66L441.227 30.16C440.987 30.7867 440.553 31.2733 439.927 31.62C439.313 31.9667 438.533 32.14 437.587 32.14ZM446.515 32V21.32H448.895V24.26L448.615 23.4C448.935 22.68 449.435 22.1333 450.115 21.76C450.808 21.3867 451.668 21.2 452.695 21.2V23.58C452.588 23.5533 452.488 23.54 452.395 23.54C452.302 23.5267 452.208 23.52 452.115 23.52C451.168 23.52 450.415 23.8 449.855 24.36C449.295 24.9067 449.015 25.7267 449.015 26.82V32H446.515ZM459.618 32.14C458.498 32.14 457.498 31.9067 456.618 31.44C455.751 30.96 455.071 30.3067 454.578 29.48C454.085 28.6533 453.838 27.7133 453.838 26.66C453.838 25.5933 454.085 24.6533 454.578 23.84C455.071 23.0133 455.751 22.3667 456.618 21.9C457.498 21.4333 458.498 21.2 459.618 21.2C460.658 21.2 461.571 21.4133 462.358 21.84C463.158 22.2533 463.765 22.8667 464.178 23.68L462.258 24.8C461.938 24.2933 461.545 23.92 461.078 23.68C460.625 23.44 460.131 23.32 459.598 23.32C458.985 23.32 458.431 23.4533 457.938 23.72C457.445 23.9867 457.058 24.3733 456.778 24.88C456.498 25.3733 456.358 25.9667 456.358 26.66C456.358 27.3533 456.498 27.9533 456.778 28.46C457.058 28.9533 457.445 29.3333 457.938 29.6C458.431 29.8667 458.985 30 459.598 30C460.131 30 460.625 29.88 461.078 29.64C461.545 29.4 461.938 29.0267 462.258 28.52L464.178 29.64C463.765 30.44 463.158 31.06 462.358 31.5C461.571 31.9267 460.658 32.14 459.618 32.14ZM472.302 21.2C473.155 21.2 473.915 21.3667 474.582 21.7C475.262 22.0333 475.795 22.5467 476.182 23.24C476.568 23.92 476.762 24.8 476.762 25.88V32H474.262V26.2C474.262 25.2533 474.035 24.5467 473.582 24.08C473.142 23.6133 472.522 23.38 471.722 23.38C471.135 23.38 470.615 23.5 470.162 23.74C469.708 23.98 469.355 24.34 469.102 24.82C468.862 25.2867 468.742 25.88 468.742 26.6V32H466.242V17.16H468.742V24.2L468.202 23.32C468.575 22.64 469.115 22.12 469.822 21.76C470.542 21.3867 471.368 21.2 472.302 21.2Z" fill="white"/>
</svg>
