<svg width="20" height="20" viewBox="0 0 20 20" fill="none" xmlns="http://www.w3.org/2000/svg">
<path d="M9.99984 18.3334C9.80539 18.3334 9.63873 18.2778 9.49984 18.1667C9.36095 18.0556 9.25678 17.9097 9.18734 17.7292C8.92345 16.9514 8.59011 16.2222 8.18734 15.5417C7.79845 14.8611 7.24984 14.0625 6.5415 13.1459C5.83317 12.2292 5.25678 11.3542 4.81234 10.5209C4.38178 9.68752 4.1665 8.68058 4.1665 7.50002C4.1665 5.87502 4.729 4.50002 5.854 3.37502C6.99289 2.23613 8.37484 1.66669 9.99984 1.66669C11.6248 1.66669 12.9998 2.23613 14.1248 3.37502C15.2637 4.50002 15.8332 5.87502 15.8332 7.50002C15.8332 8.76391 15.5901 9.81946 15.104 10.6667C14.6318 11.5 14.0832 12.3264 13.4582 13.1459C12.7082 14.1459 12.1387 14.9792 11.7498 15.6459C11.3748 16.2986 11.0623 16.9931 10.8123 17.7292C10.7429 17.9236 10.6318 18.0764 10.479 18.1875C10.3401 18.2847 10.1804 18.3334 9.99984 18.3334ZM9.99984 9.58335C10.5832 9.58335 11.0762 9.38196 11.479 8.97919C11.8818 8.57641 12.0832 8.08335 12.0832 7.50002C12.0832 6.91669 11.8818 6.42363 11.479 6.02085C11.0762 5.61808 10.5832 5.41669 9.99984 5.41669C9.4165 5.41669 8.92345 5.61808 8.52067 6.02085C8.11789 6.42363 7.9165 6.91669 7.9165 7.50002C7.9165 8.08335 8.11789 8.57641 8.52067 8.97919C8.92345 9.38196 9.4165 9.58335 9.99984 9.58335Z" fill="#1D1B20"/>
</svg>
