<svg width="21" height="21" viewBox="0 0 21 21" fill="none" xmlns="http://www.w3.org/2000/svg">
<path d="M3.5 17.5C3.01875 17.5 2.60313 17.3323 2.25313 16.9969C1.91771 16.6469 1.75 16.2313 1.75 15.75V5.25C1.75 4.76875 1.91771 4.36042 2.25313 4.025C2.60313 3.675 3.01875 3.5 3.5 3.5H17.5C17.9813 3.5 18.3896 3.675 18.725 4.025C19.075 4.36042 19.25 4.76875 19.25 5.25V15.75C19.25 16.2313 19.075 16.6469 18.725 16.9969C18.3896 17.3323 17.9813 17.5 17.5 17.5H3.5ZM10.5 11.375L17.5 7V5.25L10.5 9.625L3.5 5.25V7L10.5 11.375Z" fill="#1D1B20"/>
</svg>
