<svg width="49" height="50" viewBox="0 0 49 50" fill="none" xmlns="http://www.w3.org/2000/svg">
<path d="M40.0167 43.75L27.1542 30.625C26.1333 31.4583 24.9594 32.1181 23.6323 32.6042C22.3052 33.0903 20.8931 33.3333 19.3958 33.3333C15.6868 33.3333 12.5477 32.0226 9.97865 29.401C7.40955 26.7795 6.125 23.5764 6.125 19.7917C6.125 16.0069 7.40955 12.8038 9.97865 10.1823C12.5477 7.56076 15.6868 6.25 19.3958 6.25C23.1049 6.25 26.2439 7.56076 28.813 10.1823C31.3821 12.8038 32.6667 16.0069 32.6667 19.7917C32.6667 21.3194 32.4285 22.7604 31.9521 24.1146C31.4757 25.4687 30.8292 26.6667 30.0125 27.7083L42.875 40.8333L40.0167 43.75ZM19.3958 29.1667C21.9479 29.1667 24.1172 28.2552 25.9036 26.4323C27.6901 24.6094 28.5833 22.3958 28.5833 19.7917C28.5833 17.1875 27.6901 14.974 25.9036 13.151C24.1172 11.3281 21.9479 10.4167 19.3958 10.4167C16.8438 10.4167 14.6745 11.3281 12.888 13.151C11.1016 14.974 10.2083 17.1875 10.2083 19.7917C10.2083 22.3958 11.1016 24.6094 12.888 26.4323C14.6745 28.2552 16.8438 29.1667 19.3958 29.1667Z" fill="white"/>
</svg>
