<svg width="45" height="46" viewBox="0 0 45 46" fill="none" xmlns="http://www.w3.org/2000/svg">
<g clip-path="url(#clip0_134_164)">
<path d="M1.875 1.91667H9.375L14.4 27.5808C14.5715 28.4633 15.0411 29.2559 15.7266 29.8201C16.4122 30.3842 17.2701 30.6839 18.15 30.6667H36.375C37.2549 30.6839 38.1128 30.3842 38.7984 29.8201C39.4839 29.2559 39.9535 28.4633 40.125 27.5808L43.125 11.5H11.25M18.75 40.25C18.75 41.3085 17.9105 42.1667 16.875 42.1667C15.8395 42.1667 15 41.3085 15 40.25C15 39.1915 15.8395 38.3333 16.875 38.3333C17.9105 38.3333 18.75 39.1915 18.75 40.25ZM39.375 40.25C39.375 41.3085 38.5355 42.1667 37.5 42.1667C36.4645 42.1667 35.625 41.3085 35.625 40.25C35.625 39.1915 36.4645 38.3333 37.5 38.3333C38.5355 38.3333 39.375 39.1915 39.375 40.25Z" stroke="black" stroke-width="4" stroke-linecap="round" stroke-linejoin="round"/>
</g>
<defs>
<clipPath id="clip0_134_164">
<rect width="45" height="46" fill="white"/>
</clipPath>
</defs>
</svg>
